<?xml version="1.0" encoding="UTF-8"?><svg xmlns="http://www.w3.org/2000/svg" xmlns:xlink="http://www.w3.org/1999/xlink" viewBox="0 0 476.18 155.65"><defs><style>.cls-1{fill:none;}.cls-2{letter-spacing:-.04em;}.cls-3{fill:#3f3166;font-family:NeueHaasUnicaW1G-Medium, 'Neue Haas Unica W1G';font-size:77.97px;}.cls-4{fill:url(#linear-gradient);}.cls-5{clip-path:url(#clippath);}.cls-6{letter-spacing:0em;}.cls-7{fill:#6315ce;mix-blend-mode:color-dodge;opacity:.58;}.cls-8{letter-spacing:-.03em;}.cls-9{isolation:isolate;}.cls-10{letter-spacing:-.03em;}.cls-11{letter-spacing:-.07em;}.cls-12{letter-spacing:-.03em;}</style><clipPath id="clippath"><path id="Logo" class="cls-1" d="M156.08,53.8c-4.55-4.55-11.96-4.55-16.51,0l-37.67,37.67c-8.24,8.24-21.64,8.25-29.86,.03-8.22-8.22-8.21-21.62,.03-29.86l8.05-8.05c2.6-2.6,.76-7.03-2.91-7.03h-3.81c-1.09,0-2.14,.43-2.91,1.21l-7.38,7.38c-12.17,12.17-12.18,31.94-.04,44.09l.93,.93c5.72,5.72,13.37,9.18,21.46,9.4,.28,0,.57,.01,.85,.01,7.42,0,14.57-2.62,20.23-7.45l.07-.06,38.86-38.86c.64-.64,1.49-.99,2.4-.99s1.76,.35,2.4,.99l42.92,42.92c1.61,1.61,4.22,1.61,5.83,0l1.79-1.79c1.61-1.61,1.61-4.22,0-5.83l-44.72-44.72Z"/></clipPath><linearGradient id="linear-gradient" x1="57.92" y1="-47.98" x2="196.8" y2="202.57" gradientUnits="userSpaceOnUse"><stop offset="0" stop-color="#a882e0"/><stop offset=".11" stop-color="#9465d7"/><stop offset=".42" stop-color="#6420c2"/><stop offset=".56" stop-color="#5205ba"/><stop offset="1" stop-color="#30036d"/></linearGradient></defs><g class="cls-9"><g id="Layer_1"><text class="cls-3" transform="translate(225.53 106.34)"><tspan class="cls-11" x="0" y="0">V</tspan><tspan class="cls-10" x="44" y="0">a</tspan><tspan class="cls-2" x="83.43" y="0">l</tspan><tspan class="cls-8" x="100.85" y="0">l</tspan><tspan class="cls-12" x="118.9" y="0">e</tspan><tspan class="cls-6" x="160.08" y="0">y</tspan></text><g class="cls-5"><g><rect class="cls-4" x="8.92" y="-41.15" width="236.89" height="236.89" rx="49.5" ry="49.5"/><rect class="cls-7" x="8.92" y="-41.15" width="236.89" height="236.89" rx="49.5" ry="49.5"/></g></g></g></g></svg>